<?xml version="1.0" encoding="utf-8"?>
<!-- Generator: Adobe Illustrator 21.1.0, SVG Export Plug-In . SVG Version: 6.00 Build 0)  -->
<svg version="1.1" id="Warstwa_1" xmlns="http://www.w3.org/2000/svg" xmlns:xlink="http://www.w3.org/1999/xlink" x="0px" y="0px"
	 viewBox="0 0 509.5 280.9" style="enable-background:new 0 0 509.5 280.9;" xml:space="preserve">
<style type="text/css">
	.st0{fill:#B61928;}
	.st1{fill:#626769;}
</style>
<path class="st0" d="M126.3,146.5H72.6V89.2c0-7.7,6.3-14,14-14h57.3v53.7C143.9,138.6,136,146.5,126.3,146.5 M85,101.9
	c18.1-8.5,40.5,10.2,47.1-12.8C112.7,94.6,94.6,80.2,85,101.9 M85,117.4c14.3-6.2,28.8,8.4,37.2-9.3
	C106.8,112.1,92.6,101.6,85,117.4 M85,131.1c9.9-4.4,19.9,5.9,25.8-6.7C100.1,127.3,90.2,119.8,85,131.1"/>
<g>
	<path class="st1" d="M195.9,117.5v-3.7c4.7,0.3,8.7-0.3,11.6-2.2c4.7-2.9,6.5-8.7,6.5-14c0-2.7-0.3-4.9-1.2-7.2
		c-2.5-6.3-8-10.2-16.6-10.2c-1.6,0-3.5,0.2-3.9,0.2v47.2c0,4.8,0,9,0.1,11.3c0.1,2.2,0.7,2.4,6.1,3.6l2.9,0.6v3.4H172v-3.4l2.9-0.6
		c5.5-1.2,6-1.4,6.1-3.6c0.1-2.3,0.1-6.5,0.1-11.3V93.8c0-4.8,0-9-0.1-11.3c-0.1-2.2-0.6-2.4-6.1-3.6l-2.9-0.6v-3.4h21.2
		c8.9,0,13.2,0.4,17.9,1.7c9.3,2.5,14.4,9.9,14.4,18.8C225.5,109.5,214.3,120.7,195.9,117.5z"/>
	<path class="st1" d="M293.9,146.5H265v-3.3l6.7-1.5c1.4-0.3,2-1.2,1.5-2.5l-5.5-14.6h-25.3l-4.4,14.7c-0.4,1.2-0.1,2,2.9,2.7l6,1.2
		v3.3h-25.3v-3.3l6.1-1.5c1.9-0.5,2.7-0.9,3.3-2.6L251,80.9c1.7-5.5,3.5-6.7,9.2-8.3c0.7,2.6,1.1,3.7,2.5,7.5l22.8,59
		c0.6,1.5,0.9,1.8,2.5,2.3l5.9,1.8V146.5z M244.2,118.4h21.3l-11.8-32.1c0,0-1.1,4.2-2.7,9.6L244.2,118.4z"/>
	<path class="st1" d="M374.3,147.1c-13.4,0.6-17.5-1.2-27.9-13.4l-10-11.9c-2-2.3-2.8-3.2-4.2-4.3h-9.5v10.1c0,4.8,0,9,0.1,11.3
		c0.1,2.2,0.7,2.4,6.1,3.6l2.9,0.6v3.4h-29.3v-3.4l2.9-0.6c5.5-1.2,6-1.4,6.1-3.6c0.1-2.3,0.1-6.5,0.1-11.3V93.8c0-4.8,0-9-0.1-11.3
		c-0.1-2.2-0.6-2.4-6.1-3.6l-2.9-0.6v-3.4c0,0,11.4,0.2,16.1,0.2c4,0,6.4-0.2,11-0.2c5.3,0,9.7,0.4,13.4,1.5
		c9.2,2.4,14.3,10,14.3,18.8c0,9.5-6.5,17.2-13.9,19.4c1.8,1.2,3.1,2.3,5.9,5.4l10.3,11.2c8.8,9.5,10.5,11.2,16.1,12.5L374.3,147.1z
		 M344.3,90.1c-2.4-6.3-8.1-9.9-16.6-9.9c-1.9,0-4.5,0.2-5,0.3v31.4h12.1c5.6,0,8.6-3.8,10-8.8c0.6-1.7,0.8-3.8,0.8-5.8
		C345.6,94.8,345.2,92.4,344.3,90.1z"/>
	<path class="st1" d="M407.2,117.5v-3.7c4.7,0.3,8.7-0.3,11.6-2.2c4.7-2.9,6.5-8.7,6.5-14c0-2.7-0.3-4.9-1.2-7.2
		c-2.5-6.3-8-10.2-16.6-10.2c-1.6,0-3.5,0.2-3.9,0.2v47.2c0,4.8,0,9,0.1,11.3c0.1,2.2,0.7,2.4,6.1,3.6l2.9,0.6v3.4h-29.3v-3.4
		l2.9-0.6c5.5-1.2,6-1.4,6.1-3.6c0.1-2.3,0.1-6.5,0.1-11.3V93.8c0-4.8,0-9-0.1-11.3c-0.1-2.2-0.6-2.4-6.1-3.6l-2.9-0.6v-3.4h21.2
		c8.9,0,13.2,0.4,17.9,1.7c9.3,2.5,14.4,9.9,14.4,18.8C436.9,109.5,425.7,120.7,407.2,117.5z"/>
</g>
<g>
	<path class="st1" d="M180.8,187.8v-1.4c1.8,0.1,3.3-0.1,4.4-0.8c1.8-1.1,2.4-3.3,2.4-5.3c0-1-0.1-1.9-0.5-2.7c-1-2.4-3-3.8-6.2-3.8
		c-0.6,0-1.3,0.1-1.5,0.1v17.7c0,1.8,0,3.4,0,4.3c0,0.8,0.3,0.9,2.3,1.4l1.1,0.2v1.3h-11v-1.3l1.1-0.2c2.1-0.5,2.2-0.5,2.3-1.4
		c0-0.9,0-2.4,0-4.3v-12.7c0-1.8,0-3.4,0-4.3c0-0.8-0.2-0.9-2.3-1.4l-1.1-0.2v-1.3h8c3.3,0,5,0.2,6.7,0.6c3.5,1,5.4,3.7,5.4,7.1
		C191.9,184.8,187.7,189,180.8,187.8z"/>
	<path class="st1" d="M214.4,178.4H213c-0.2-1.4-0.3-2.2-0.5-3.2c-0.3-1.3-0.8-1.6-9.4-1.6v11.2c3.2,0,5.6,0,6.6-0.2
		c0.7-0.1,0.9-0.1,1.1-0.6c0.2-0.8,0.3-1.3,0.6-2.4h1.3v8.5h-1.3c-0.2-0.9-0.3-1.3-0.6-2.4c-0.2-0.7-0.3-0.8-1.1-0.9
		c-0.8-0.1-3.3-0.2-6.6-0.2v4.9c0,1.8,0,3.4,0,4.3c0,0.8,0.2,0.9,2.3,1.3l1.1,0.2v1.3h-11v-1.3l1.1-0.2c2-0.5,2.2-0.5,2.3-1.4
		c0-0.9,0-2.4,0-4.3v-12.7c0-1.8,0-3.4,0-4.3c0-0.8-0.3-0.9-2.8-1.4l-1.1-0.2v-1.3h19.6C214.6,173.6,214.5,175.9,214.4,178.4z"/>
	<path class="st1" d="M246.3,198.9c-5.1,0.2-6.6-0.5-10.5-5.1l-3.8-4.5c-0.8-0.9-1.1-1.2-1.6-1.6h-3.6v3.8c0,1.8,0,3.4,0,4.3
		c0,0.8,0.3,0.9,2.3,1.4l1.1,0.2v1.3h-11v-1.3l1.1-0.2c2.1-0.5,2.2-0.5,2.3-1.4c0-0.9,0-2.4,0-4.3v-12.7c0-1.8,0-3.4,0-4.3
		c0-0.8-0.2-0.9-2.3-1.4l-1.1-0.2v-1.3c0,0,4.3,0.1,6,0.1c1.5,0,2.4-0.1,4.1-0.1c2,0,3.6,0.2,5.1,0.6c3.5,0.9,5.4,3.8,5.4,7.1
		c0,3.6-2.4,6.5-5.2,7.3c0.7,0.5,1.2,0.9,2.2,2l3.9,4.2c3.3,3.6,4,4.2,6,4.7L246.3,198.9z M235,177.5c-0.9-2.4-3-3.7-6.2-3.7
		c-0.7,0-1.7,0.1-1.9,0.1v11.8h4.6c2.1,0,3.2-1.4,3.8-3.3c0.2-0.6,0.3-1.4,0.3-2.2C235.5,179.2,235.3,178.3,235,177.5z"/>
	<path class="st1" d="M282.9,187.9c-2.1,0.5-2.2,0.7-2.3,1.5c0,0.9,0,2.4,0,4.2v0.6c0,0.4,0,2.2,0.2,2.8c-2.8,1.1-6.7,1.9-10.3,1.9
		c-3.5,0-7-0.8-9.6-2.7c-3.3-2.4-5.2-6.3-5.2-11.5c0-5,2-8.5,5.1-10.8c2.4-1.8,5.6-2.7,10-2.7c3.7,0,6.6,0.5,9.4,0.8
		c0,2.4,0,4.7-0.2,7.8h-1.5c-0.3-1.7-0.4-2.3-0.6-3.2c-0.6-2.4-3.1-3.3-7.4-3.3c-3.6,0-5.9,0.8-7.4,2.3c-2.1,2.1-2.8,4.8-2.8,8.6
		c0,7.3,4,12.6,11.2,12.6c1.9,0,3.7-0.3,5-0.6v-2.6c0-1.8,0-3.3,0-4.2c0-0.8-0.2-1-2.3-1.5l-1-0.2v-1.4h10.8v1.4L282.9,187.9z"/>
	<path class="st1" d="M298.6,183.7c-1.5-0.7-2.6-1-3.4-1c-1.1,0-2,0.5-2.4,1v7.2c0,2,0,3.9,0,4.9c0,0.8,0.1,1,1,1.2l1.7,0.5v1.1
		h-8.9v-1.1l1.5-0.5c0.8-0.3,0.9-0.3,0.9-1.2c0-1.1,0-3,0-4.9v-3.2c0-1.8,0-3.7,0-4.6c0-0.8-0.3-1.1-1.1-1.3l-1.6-0.4v-0.8
		c2.4-0.9,4.4-1.1,6.2-1.1h0.3v3.3c1-2.7,2.7-3.6,4.3-3.6s2.5,0.8,2.5,2.1C299.4,182,299.1,182.9,298.6,183.7z"/>
	<path class="st1" d="M310.3,199c-6,0-9.2-3.8-9.2-9.6c0-3.7,1.3-6.6,4-8.4c1.6-1.1,3.7-1.7,5.9-1.7c3.6,0,6.1,1.4,7.7,4
		c0.9,1.4,1.3,3.4,1.3,5.4C319.9,195.3,315.5,199,310.3,199z M314.5,183.7c-1.1-1.7-2.4-2.4-4.4-2.4c-4,0-5,3.8-5,7.4
		c0,4.6,1.9,8.3,5.7,8.3c3.2,0,5-2.9,5-7.3C315.8,187,315.4,185.1,314.5,183.7z"/>
	<path class="st1" d="M343.5,197.7c-2.4,0.9-4.4,1.1-6.2,1.1H337v-3.1c-1.2,2.1-3.3,3.5-6.2,3.5c-4.2,0-6.1-2.4-6.1-7.5v-4
		c0-1.8,0-3.7,0-4.6c0-0.8-0.3-1.1-1.1-1.3l-1.6-0.4v-0.8c2.4-0.9,4.5-1.1,6.2-1.1h0.4v10.3c0,4.5,0.5,6.6,4,6.6
		c2,0,3.6-0.8,4.4-1.7v-6.9c0-1.8,0-3.7,0-4.6c0-0.8-0.3-1.1-1.1-1.3l-1.6-0.4v-0.8c2.4-0.9,4.4-1.1,6.2-1.1h0.4v11.1
		c0,1.8,0,3.7,0,4.6c0,0.8,0.3,1.1,1.1,1.3l1.6,0.4V197.7z"/>
	<path class="st1" d="M361.2,197.1c-2,1.4-4.1,2.1-6.6,2.1c-1,0-1.9-0.1-2.8-0.3v1.6c0,2,0,3.9,0,4.9c0,0.9,0.1,1,0.9,1.3l1.6,0.5
		v1.1h-8.7v-1.1l1.5-0.5c0.8-0.3,0.9-0.3,0.9-1.3c0-1,0-2.9,0-4.9v-12.8c0-1.8,0-3.7,0-4.6c0-0.8-0.3-1.1-1.1-1.3l-1.6-0.4v-0.8
		c2.4-0.9,4.4-1.1,6.2-1.1h0.3v2.8c1.2-1.9,3.4-3,5.9-3c4.7,0,7.7,3.8,7.7,8.7C365.2,192.1,363.8,195.2,361.2,197.1z M355.6,181.9
		c-1.5,0-3.1,0.6-3.8,1.4v12.9c1.7,0.5,2.9,0.6,4,0.6c1.6,0,2.6-0.5,3.2-1c1.5-1.2,2.3-3.5,2.3-6.3
		C361.2,184.8,359.1,181.9,355.6,181.9z"/>
</g>
</svg>
