<?xml version="1.0" encoding="UTF-8"?>
<svg id="Layer_1" data-name="Layer 1" xmlns="http://www.w3.org/2000/svg" viewBox="0 0 165.36 52.46">
  <defs>
    <style>
      .cls-1 {
        fill: #253876;
      }
    </style>
  </defs>
  <g>
    <path class="cls-1" d="M147.86,6.43c-.28.14-.54.29-.79.44v11.21c.26.16.51.31.79.45V6.43Z"/>
    <path class="cls-1" d="M155.45,19.92c.73-.05,1.45-.15,2.13-.29V5.33c-.69-.14-1.4-.24-2.13-.29v14.88Z"/>
    <path class="cls-1" d="M145.82,7.76c-.17.14-.36.27-.51.42v8.59c.15.15.34.28.51.42V7.76Z"/>
    <path class="cls-1" d="M158.29,5.48v13.99c4.12-1.09,7.06-3.8,7.06-6.99s-2.94-5.91-7.06-7"/>
    <path class="cls-1" d="M154.34,4.96h0c-.75,0-1.49.05-2.2.15v14.73c.71.1,1.44.15,2.2.15h0V4.96Z"/>
    <path class="cls-1" d="M150.75,5.41c-.43.1-.84.22-1.25.35v13.44c.4.14.82.25,1.25.35V5.41Z"/>
  </g>
  <polygon class="cls-1" points="24.38 .45 24.38 14.2 10.34 .45 0 .45 0 24.63 9.16 24.63 9.16 9.98 24.31 24.63 33.54 24.63 33.54 .45 24.38 .45"/>
  <g>
    <path class="cls-1" d="M52.75,25.09c-14.89,0-17.09-7.57-17.09-12.16v-.94c0-4.61,2.01-11.99,17.09-11.99h1.27c14.72,0,16.8,6.69,16.84,9.78v.42h-9.59c-.16-.62-.98-3.71-7.96-3.71s-8.09,2.96-8.09,5.65v.39c0,2.6,1.62,6.01,8.12,6.01,7.12,0,7.83-3.41,7.96-3.97h9.56v.52c0,3.19-2.24,9.98-16.84,9.98h-1.27Z"/>
    <path class="cls-1" d="M82.09,14.79v4.16h11.31c2.4,0,2.86-1.14,2.86-2.08v-.1c0-1-.49-1.98-2.86-1.98h-11.31ZM82.09,5.95v3.41h10.72c1.92,0,2.47-.78,2.47-1.69v-.06c0-.98-.55-1.66-2.47-1.66h-10.72ZM72.86.45h22.75c7.05,0,8.94,2.7,8.94,5.49v.36c0,2.99-2.57,4.39-4.16,4.75,2.14.49,5.56,1.95,5.56,6.21v.39c0,3.8-2.34,6.99-10.21,6.99h-22.88V.45Z"/>
    <path class="cls-1" d="M116.93,10.5h10.6c2.01,0,2.8-.91,2.8-2.08v-.03c0-1.14-.75-2.05-2.8-2.05h-10.6v4.16ZM116.93,24.63h-9.23V.45h21.97c7.08,0,10.17,2.27,10.17,6.21v.36c0,3.51-3.05,4.94-4.87,5.4,2.96.68,4.97,2.63,4.97,5.75v3.58c0,1.69.23,2.31.46,2.73v.16h-9.43c-.2-.26-.29-.58-.29-1.27v-2.83c0-2.8-1.27-4.19-4.91-4.19h-8.84v8.29Z"/>
  </g>
  <polygon class="cls-1" points="4.03 34.32 4.03 39.03 3.97 39.03 .7 34.32 0 34.32 0 40.3 .72 40.3 .72 35.6 .78 35.6 4.04 40.3 4.74 40.3 4.74 34.32 4.03 34.32"/>
  <g>
    <path class="cls-1" d="M7.52,39.78c.27,0,.5-.05.69-.16.19-.1.33-.25.43-.41.1-.17.15-.35.15-.53v-.63s-.09.07-.19.1c-.1.03-.21.05-.34.07-.13.02-.25.04-.37.05-.12.01-.22.02-.29.03-.18.03-.35.06-.5.11-.16.05-.28.13-.38.23-.09.1-.14.24-.14.42,0,.24.09.42.27.54.18.12.4.18.68.18M7.41,40.4c-.29,0-.54-.05-.77-.16-.23-.11-.41-.26-.55-.47-.14-.21-.2-.46-.2-.75,0-.26.05-.47.15-.63.1-.16.24-.29.41-.38.17-.09.36-.16.56-.2.21-.05.41-.08.62-.11.27-.04.49-.06.67-.08.17-.02.29-.05.37-.1.08-.05.12-.12.12-.23v-.02c0-.29-.08-.51-.24-.67-.16-.16-.39-.24-.71-.24s-.58.07-.77.22c-.19.14-.32.3-.39.46l-.65-.23c.12-.27.27-.48.47-.64s.41-.26.64-.32c.23-.06.46-.09.69-.09.14,0,.31.02.49.05.19.03.37.1.55.21.18.1.32.26.44.47.12.21.17.49.17.85v2.95h-.69v-.61h-.04c-.05.1-.13.2-.23.31-.11.11-.26.2-.44.28-.18.08-.4.12-.66.12"/>
    <path class="cls-1" d="M11.03,34.74h.69v4.27c0,.19.03.34.08.44s.13.16.22.19c.09.03.19.05.29.05.07,0,.14,0,.19-.01.05,0,.09-.02.12-.02l.14.62s-.11.04-.19.06c-.08.02-.19.03-.32.03-.19,0-.38-.04-.57-.13-.19-.08-.34-.21-.46-.38-.12-.17-.18-.39-.18-.65v-4.46ZM12.68,36.4h-2.33v-.58h2.33v.58Z"/>
    <path class="cls-1" d="M13.72,35.82h.69v4.49h-.69v-4.49ZM14.07,35.07c-.14,0-.25-.04-.35-.14-.1-.09-.14-.2-.14-.33s.05-.24.14-.33c.1-.09.21-.14.35-.14s.25.05.34.14c.1.09.15.2.15.33s-.05.24-.15.33c-.1.09-.21.14-.34.14"/>
    <path class="cls-1" d="M17.49,39.77c.31,0,.56-.08.76-.23.2-.16.34-.37.44-.62.1-.26.14-.54.14-.84s-.05-.58-.14-.84c-.1-.26-.24-.47-.44-.63-.2-.16-.45-.24-.76-.24s-.56.08-.76.24c-.2.16-.34.37-.44.63-.1.26-.14.54-.14.84s.05.58.14.84c.1.26.24.46.44.62.2.16.45.23.76.23M17.49,40.39c-.41,0-.76-.1-1.06-.29-.31-.19-.54-.46-.71-.81-.17-.34-.26-.75-.26-1.22s.08-.87.26-1.22c.17-.35.41-.62.71-.81.3-.19.66-.29,1.06-.29s.76.1,1.06.29c.3.19.54.47.71.81.17.35.26.76.26,1.22s-.08.87-.26,1.22c-.17.35-.41.62-.71.81-.31.19-.66.29-1.06.29"/>
    <path class="cls-1" d="M21.26,37.6v2.7h-.69v-4.48h.66v.7h.06c.11-.23.26-.41.48-.55.22-.14.49-.21.83-.21.3,0,.57.06.8.19.23.12.4.31.53.56.13.25.19.56.19.95v2.85h-.69v-2.8c0-.35-.09-.63-.28-.82-.18-.2-.43-.3-.75-.3-.22,0-.41.05-.58.14-.17.1-.31.23-.41.42-.1.18-.15.4-.15.67"/>
    <path class="cls-1" d="M26.81,39.78c.27,0,.5-.05.69-.16.19-.1.33-.25.43-.41.1-.17.15-.35.15-.53v-.63s-.09.07-.19.1c-.1.03-.21.05-.34.07-.13.02-.25.04-.37.05-.12.01-.22.02-.29.03-.18.03-.35.06-.5.11-.16.05-.28.13-.38.23-.09.1-.14.24-.14.42,0,.24.09.42.27.54.18.12.4.18.68.18M26.7,40.4c-.29,0-.54-.05-.77-.16-.23-.11-.41-.26-.55-.47-.14-.21-.2-.46-.2-.75,0-.26.05-.47.15-.63.1-.16.24-.29.41-.38.17-.09.36-.16.56-.2.2-.05.41-.08.62-.11.27-.04.49-.06.67-.08.17-.02.29-.05.37-.1.08-.05.12-.12.12-.23v-.02c0-.29-.08-.51-.24-.67-.16-.16-.39-.24-.71-.24s-.58.07-.77.22c-.19.14-.32.3-.39.46l-.65-.23c.12-.27.27-.48.47-.64s.41-.26.64-.32c.23-.06.46-.09.69-.09.14,0,.31.02.5.05.19.03.37.1.55.21.18.1.32.26.44.47s.17.49.17.85v2.95h-.69v-.61h-.04c-.05.1-.13.2-.23.31-.11.11-.26.2-.44.28-.18.08-.4.12-.66.12"/>
  </g>
  <rect class="cls-1" x="30.02" y="34.32" width=".69" height="5.98"/>
  <g>
    <path class="cls-1" d="M39.19,36.19h-.72c-.04-.21-.12-.39-.22-.55-.1-.16-.23-.29-.38-.4-.15-.11-.32-.19-.5-.24-.18-.05-.38-.08-.57-.08-.36,0-.69.09-.98.27-.29.18-.53.45-.7.81-.17.35-.26.79-.26,1.31s.09.95.26,1.31c.17.36.4.63.7.81.29.18.62.27.98.27.2,0,.39-.03.57-.08.18-.05.35-.14.5-.24.15-.11.28-.24.38-.4.11-.16.18-.34.22-.55h.72c-.05.31-.15.58-.3.82-.14.24-.32.44-.54.61-.22.17-.46.3-.72.39-.27.09-.55.13-.85.13-.51,0-.96-.13-1.36-.38-.4-.25-.71-.6-.94-1.06-.23-.46-.34-1.01-.34-1.63s.11-1.18.34-1.63c.23-.46.54-.82.94-1.06.4-.25.85-.38,1.36-.38.3,0,.58.04.85.13.26.09.5.21.72.38.21.17.39.38.54.61.14.24.24.51.3.82"/>
    <path class="cls-1" d="M42.14,40.39c-.43,0-.8-.1-1.12-.29-.32-.19-.56-.46-.72-.8-.17-.34-.25-.75-.25-1.21s.08-.86.25-1.22c.17-.35.4-.62.71-.82.3-.2.66-.3,1.06-.3.23,0,.46.04.69.12.23.08.44.2.62.38.19.17.34.4.45.69.11.28.17.64.17,1.06v.29h-3.46v-.6h2.75c0-.25-.05-.48-.15-.68-.1-.2-.24-.35-.43-.47-.18-.12-.4-.17-.65-.17-.28,0-.51.07-.71.2-.2.14-.35.31-.46.53-.1.22-.16.45-.16.69v.4c0,.34.06.62.18.86.12.23.28.41.49.53.21.12.45.18.73.18.18,0,.34-.02.49-.08.15-.05.27-.13.38-.23.11-.11.19-.23.25-.39l.66.19c-.07.22-.19.42-.35.59-.17.17-.37.3-.62.4-.24.09-.52.14-.82.14"/>
    <path class="cls-1" d="M45.74,37.6v2.7h-.69v-4.48h.66v.7h.06c.11-.23.26-.41.48-.55.22-.14.49-.21.83-.21.3,0,.57.06.8.19.23.12.4.31.53.56.13.25.19.56.19.95v2.85h-.69v-2.8c0-.35-.09-.63-.27-.82-.18-.2-.43-.3-.76-.3-.22,0-.41.05-.58.14-.17.1-.31.23-.41.42-.1.18-.15.4-.15.67"/>
    <path class="cls-1" d="M50.16,34.74h.69v4.27c0,.19.03.34.09.44s.13.16.22.19c.09.03.19.05.29.05.07,0,.14,0,.19-.01s.09-.02.12-.02l.14.62s-.11.04-.2.06c-.08.02-.19.03-.32.03-.19,0-.38-.04-.57-.13-.19-.08-.34-.21-.46-.38-.12-.17-.18-.39-.18-.65v-4.46ZM51.81,36.4h-2.32v-.58h2.32v.58Z"/>
    <path class="cls-1" d="M52.85,40.3v-4.48h.67v.68h.05c.08-.22.23-.4.44-.54.22-.14.46-.21.72-.21.05,0,.11,0,.19,0,.07,0,.13,0,.17,0v.7s-.08-.01-.16-.03c-.08-.01-.17-.02-.26-.02-.22,0-.41.04-.58.13-.17.09-.3.21-.4.38-.1.16-.15.34-.15.54v2.84h-.69Z"/>
    <path class="cls-1" d="M57.65,40.39c-.43,0-.8-.1-1.12-.29-.31-.19-.56-.46-.72-.8-.17-.34-.25-.75-.25-1.21s.08-.86.25-1.22c.17-.35.4-.62.71-.82.3-.2.66-.3,1.06-.3.23,0,.46.04.69.12.23.08.44.2.62.38.19.17.33.4.44.69.11.28.17.64.17,1.06v.29h-3.46v-.6h2.75c0-.25-.05-.48-.15-.68-.1-.2-.24-.35-.43-.47-.18-.12-.4-.17-.65-.17-.28,0-.51.07-.71.2-.2.14-.35.31-.46.53-.1.22-.16.45-.16.69v.4c0,.34.06.62.18.86.12.23.28.41.49.53.21.12.45.18.73.18.18,0,.34-.02.49-.08.15-.05.27-.13.38-.23.11-.11.19-.23.25-.39l.66.19c-.07.22-.19.42-.35.59-.17.17-.37.3-.62.4-.24.09-.52.14-.82.14"/>
    <path class="cls-1" d="M63.17,40.3v-5.1c0-.26.06-.47.18-.65.12-.17.28-.3.47-.38.19-.08.4-.13.61-.13.17,0,.31.01.41.04s.19.05.24.08l-.2.6s-.08-.03-.14-.05c-.06-.02-.14-.03-.24-.03-.23,0-.39.06-.49.17-.1.11-.15.28-.15.5v4.94h-.69ZM64.86,36.4h-2.42v-.58h2.42v.58Z"/>
    <path class="cls-1" d="M67.47,39.77c.31,0,.56-.08.76-.23s.35-.37.44-.62c.1-.26.14-.54.14-.84s-.05-.58-.14-.84c-.1-.26-.24-.47-.44-.63-.2-.16-.45-.24-.76-.24s-.56.08-.76.24c-.2.16-.35.37-.44.63-.1.26-.14.54-.14.84s.05.58.14.84c.1.26.24.46.44.62s.45.23.76.23M67.47,40.39c-.41,0-.76-.1-1.07-.29-.3-.19-.54-.46-.71-.81-.17-.34-.26-.75-.26-1.22s.08-.87.26-1.22c.17-.35.41-.62.71-.81.31-.19.66-.29,1.07-.29s.76.1,1.06.29c.3.19.54.47.71.81.17.35.26.76.26,1.22s-.08.87-.26,1.22c-.17.35-.41.62-.71.81-.31.19-.66.29-1.06.29"/>
    <path class="cls-1" d="M70.55,40.3v-4.48h.67v.68h.05c.08-.22.23-.4.44-.54.22-.14.46-.21.72-.21.05,0,.11,0,.19,0,.07,0,.13,0,.17,0v.7s-.08-.01-.16-.03c-.08-.01-.17-.02-.26-.02-.22,0-.41.04-.58.13-.17.09-.31.21-.4.38-.1.16-.15.34-.15.54v2.84h-.69Z"/>
    <path class="cls-1" d="M78.83,37.61l1.47,2.69h-.84l-1.45-2.69h.82ZM76.01,40.3v-5.98h2.02c.47,0,.85.08,1.15.24.3.16.52.38.67.65.14.28.22.59.22.94s-.07.66-.22.94c-.14.27-.37.48-.66.64-.3.16-.68.23-1.14.23h-1.64v-.65h1.61c.32,0,.58-.05.77-.14.19-.1.34-.23.43-.4.09-.17.13-.38.13-.62s-.04-.45-.14-.63c-.09-.18-.23-.32-.43-.42-.19-.1-.46-.15-.78-.15h-1.27v5.34h-.72Z"/>
    <path class="cls-1" d="M83.01,40.39c-.43,0-.8-.1-1.12-.29-.31-.19-.55-.46-.72-.8-.17-.34-.25-.75-.25-1.21s.08-.86.25-1.22c.17-.35.4-.62.71-.82.3-.2.66-.3,1.06-.3.23,0,.46.04.69.12s.43.2.62.38c.19.17.33.4.44.69.11.28.17.64.17,1.06v.29h-3.46v-.6h2.75c0-.25-.05-.48-.15-.68-.1-.2-.24-.35-.43-.47-.18-.12-.4-.17-.65-.17-.28,0-.51.07-.71.2-.2.14-.35.31-.46.53-.1.22-.16.45-.16.69v.4c0,.34.06.62.18.86.12.23.28.41.49.53.21.12.45.18.73.18.18,0,.34-.02.49-.08.15-.05.27-.13.38-.23.11-.11.19-.23.25-.39l.66.19c-.07.22-.19.42-.35.59-.17.17-.37.3-.62.4-.24.09-.52.14-.82.14"/>
    <path class="cls-1" d="M89.09,36.82l-.62.17c-.04-.1-.1-.2-.17-.3-.08-.1-.18-.18-.31-.25-.13-.06-.29-.1-.5-.1-.27,0-.5.06-.68.19-.18.13-.27.28-.27.48,0,.17.06.31.19.4.12.1.32.18.58.25l.67.16c.4.1.7.25.9.45.2.2.29.46.29.77,0,.26-.07.49-.22.69-.15.2-.35.36-.62.48-.26.12-.57.17-.92.17-.46,0-.83-.1-1.13-.3-.3-.2-.49-.49-.57-.87l.65-.16c.06.24.18.42.35.54.17.12.4.18.68.18.32,0,.58-.07.77-.21s.29-.3.29-.49c0-.16-.06-.28-.17-.39-.11-.11-.28-.19-.5-.24l-.75-.18c-.41-.1-.71-.25-.9-.45-.19-.2-.29-.46-.29-.77,0-.26.07-.48.21-.67.14-.19.34-.35.59-.46.25-.11.53-.16.84-.16.44,0,.79.1,1.05.29.26.2.44.45.54.77"/>
    <path class="cls-1" d="M92.09,40.39c-.43,0-.8-.1-1.12-.29-.31-.19-.55-.46-.72-.8-.17-.34-.25-.75-.25-1.21s.08-.86.25-1.22c.17-.35.4-.62.71-.82.3-.2.66-.3,1.06-.3.23,0,.46.04.69.12.23.08.44.2.62.38.19.17.33.4.44.69.11.28.17.64.17,1.06v.29h-3.46v-.6h2.75c0-.25-.05-.48-.15-.68-.1-.2-.24-.35-.43-.47-.18-.12-.4-.17-.65-.17-.28,0-.51.07-.71.2-.2.14-.35.31-.46.53-.1.22-.16.45-.16.69v.4c0,.34.06.62.18.86.12.23.28.41.49.53.21.12.45.18.73.18.18,0,.34-.02.49-.08.15-.05.27-.13.38-.23.11-.11.19-.23.25-.39l.66.19c-.07.22-.19.42-.35.59-.16.17-.37.3-.62.4-.24.09-.52.14-.82.14"/>
    <path class="cls-1" d="M96.42,39.78c.27,0,.5-.05.69-.16.19-.1.33-.25.43-.41.1-.17.14-.35.14-.53v-.63s-.09.07-.19.1c-.1.03-.21.05-.34.07-.13.02-.25.04-.37.05-.12.01-.22.02-.29.03-.18.03-.35.06-.5.11-.15.05-.28.13-.37.23-.1.1-.14.24-.14.42,0,.24.09.42.27.54.18.12.4.18.68.18M96.32,40.4c-.29,0-.54-.05-.77-.16-.23-.11-.41-.26-.55-.47-.14-.21-.2-.46-.2-.75,0-.26.05-.47.15-.63.1-.16.23-.29.41-.38.17-.09.36-.16.56-.2.21-.05.41-.08.62-.11.27-.04.49-.06.66-.08.17-.02.3-.05.38-.1.08-.05.12-.12.12-.23v-.02c0-.29-.08-.51-.23-.67-.16-.16-.39-.24-.71-.24s-.59.07-.77.22c-.19.14-.32.3-.39.46l-.65-.23c.12-.27.27-.48.47-.64.2-.15.41-.26.64-.32.23-.06.46-.09.69-.09.14,0,.31.02.5.05.19.03.37.1.55.21.18.1.32.26.44.47.12.21.18.49.18.85v2.95h-.69v-.61h-.03c-.05.1-.13.2-.23.31s-.26.2-.43.28c-.18.08-.4.12-.66.12"/>
    <path class="cls-1" d="M99.64,40.3v-4.48h.67v.68h.05c.08-.22.23-.4.44-.54.22-.14.46-.21.73-.21.05,0,.11,0,.19,0,.07,0,.13,0,.17,0v.7s-.08-.01-.16-.03c-.08-.01-.17-.02-.26-.02-.22,0-.41.04-.58.13-.17.09-.3.21-.4.38-.1.16-.15.34-.15.54v2.84h-.69Z"/>
    <path class="cls-1" d="M104.38,40.39c-.42,0-.78-.1-1.09-.3-.3-.2-.54-.47-.7-.82-.17-.35-.25-.74-.25-1.19s.08-.86.25-1.21c.17-.35.4-.62.71-.82.3-.2.65-.3,1.06-.3.32,0,.6.06.85.17.25.12.46.28.62.49s.26.46.3.74h-.69c-.05-.2-.17-.39-.35-.54-.18-.16-.42-.24-.73-.24-.27,0-.5.07-.71.21-.2.14-.36.33-.47.59-.11.25-.17.55-.17.89s.06.65.17.9c.11.26.26.46.46.6.2.14.44.21.71.21.18,0,.34-.03.49-.09.14-.06.27-.15.37-.27.1-.12.17-.26.22-.42h.69c-.04.26-.13.5-.29.71-.15.21-.35.38-.6.5-.25.12-.54.19-.87.19"/>
    <path class="cls-1" d="M107.83,37.6v2.7h-.69v-5.98h.69v2.2h.06c.1-.23.26-.41.47-.55.21-.14.49-.21.85-.21.31,0,.57.06.8.18.23.12.41.31.53.56.13.25.19.57.19.95v2.85h-.69v-2.8c0-.36-.09-.63-.28-.83-.18-.19-.44-.29-.76-.29-.22,0-.43.05-.61.14-.18.1-.32.23-.42.42-.1.18-.15.4-.15.67"/>
    <path class="cls-1" d="M1.75,50.26c.27,0,.5-.05.69-.16.19-.1.33-.24.43-.41.1-.17.14-.35.14-.53v-.63s-.09.07-.19.09c-.1.03-.21.05-.34.08-.13.02-.25.04-.37.05-.12.02-.22.03-.29.04-.18.02-.35.06-.5.11-.16.05-.28.13-.38.23-.1.1-.14.24-.14.41,0,.24.09.42.27.54.18.12.4.18.68.18M1.65,50.88c-.29,0-.54-.05-.77-.16-.23-.11-.41-.26-.55-.47-.14-.2-.2-.45-.2-.74,0-.26.05-.47.15-.63.1-.16.24-.28.41-.38.17-.09.36-.16.56-.21.21-.05.41-.08.62-.11.27-.04.49-.06.67-.08.17-.02.29-.05.37-.1.08-.04.12-.12.12-.23v-.02c0-.29-.08-.51-.23-.67-.16-.16-.39-.24-.71-.24s-.58.07-.77.22c-.19.14-.32.29-.39.46l-.65-.23c.12-.27.27-.48.47-.64.19-.15.41-.26.64-.32.23-.06.46-.09.69-.09.14,0,.31.02.5.05.19.03.37.1.55.21.18.1.32.26.44.47.12.21.17.5.17.85v2.95h-.69v-.61h-.03c-.05.1-.13.2-.23.31-.11.11-.26.2-.44.28-.18.08-.4.12-.66.12"/>
    <path class="cls-1" d="M5.65,48.08v2.7h-.69v-4.49h.66v.7h.06c.1-.23.26-.41.48-.55.22-.14.49-.21.83-.21.3,0,.57.06.8.19.23.12.4.31.53.56.13.25.19.56.19.94v2.85h-.69v-2.8c0-.35-.09-.63-.27-.82-.18-.2-.44-.3-.76-.3-.22,0-.41.05-.58.14-.17.1-.31.23-.41.42-.1.18-.15.4-.15.67"/>
    <path class="cls-1" d="M11.56,50.25c.28,0,.51-.07.7-.22.19-.14.34-.35.44-.6.1-.26.15-.56.15-.89s-.05-.63-.14-.88c-.1-.25-.24-.45-.43-.59-.19-.14-.43-.21-.71-.21s-.53.08-.73.22c-.19.15-.34.35-.43.61-.1.25-.15.54-.15.85s.05.61.15.87c.1.26.24.47.44.62.19.16.43.23.72.23M11.47,50.87c-.37,0-.7-.1-.99-.28-.28-.19-.51-.46-.67-.8-.16-.35-.24-.76-.24-1.23s.08-.88.24-1.23c.16-.34.38-.61.67-.8.29-.19.62-.28,1-.28.29,0,.52.05.69.14s.3.2.39.33c.09.12.16.22.21.3h.06v-2.21h.69v5.98h-.67v-.69h-.08c-.05.08-.12.19-.22.31-.09.12-.23.23-.4.33-.17.1-.4.14-.69.14"/>
    <path class="cls-1" d="M18.01,50.13h1.07c.49,0,.91-.1,1.23-.29.32-.19.57-.46.73-.81.16-.35.24-.77.24-1.26s-.08-.9-.24-1.25c-.16-.35-.39-.62-.71-.81-.31-.19-.7-.28-1.17-.28h-1.15v4.69ZM19.13,50.78h-1.85v-5.98h1.93c.58,0,1.08.12,1.49.36.41.24.73.58.95,1.03.22.44.33.97.33,1.6s-.11,1.16-.33,1.61c-.22.45-.55.79-.97,1.03-.43.24-.94.36-1.55.36"/>
    <path class="cls-1" d="M24.98,50.87c-.43,0-.8-.1-1.12-.29-.32-.19-.56-.46-.72-.8-.17-.34-.25-.75-.25-1.21s.08-.86.25-1.22c.17-.35.4-.63.71-.82.3-.2.66-.3,1.06-.3.23,0,.46.04.69.12.23.08.44.2.62.38.19.17.34.4.45.69.11.28.17.64.17,1.06v.29h-3.46v-.59h2.75c0-.25-.05-.48-.15-.68-.1-.2-.24-.35-.43-.47-.18-.12-.4-.17-.65-.17-.28,0-.51.07-.71.2-.2.13-.35.31-.46.53-.1.22-.16.45-.16.7v.4c0,.34.06.62.18.86.12.23.28.41.49.53.21.12.45.18.73.18.18,0,.34-.03.49-.08.15-.05.27-.13.38-.23.11-.1.19-.23.25-.39l.66.19c-.07.22-.19.42-.35.59-.17.17-.37.3-.62.4-.24.09-.52.14-.82.14"/>
  </g>
  <polygon class="cls-1" points="30.66 46.29 29.43 49.87 29.38 49.87 28.14 46.29 27.39 46.29 29.05 50.78 29.76 50.78 31.41 46.29 30.66 46.29"/>
  <path class="cls-1" d="M34.04,50.87c-.43,0-.8-.1-1.12-.29-.31-.19-.55-.46-.72-.8-.17-.34-.25-.75-.25-1.21s.08-.86.25-1.22c.17-.35.4-.63.71-.82.3-.2.66-.3,1.06-.3.23,0,.46.04.69.12.23.08.44.2.62.38.19.17.33.4.44.69.11.28.17.64.17,1.06v.29h-3.46v-.59h2.75c0-.25-.05-.48-.15-.68-.1-.2-.24-.35-.43-.47-.18-.12-.4-.17-.65-.17-.28,0-.51.07-.71.2-.2.13-.35.31-.46.53-.1.22-.16.45-.16.7v.4c0,.34.06.62.18.86.12.23.28.41.49.53.21.12.45.18.73.18.18,0,.34-.03.49-.08.15-.05.27-.13.38-.23.11-.1.19-.23.25-.39l.66.19c-.07.22-.19.42-.35.59-.17.17-.37.3-.62.4-.24.09-.52.14-.82.14"/>
  <rect class="cls-1" x="36.95" y="44.8" width=".69" height="5.98"/>
  <g>
    <path class="cls-1" d="M40.72,50.25c.31,0,.56-.08.76-.24.2-.16.35-.37.44-.62.1-.26.14-.54.14-.84s-.05-.58-.14-.84-.24-.47-.44-.63c-.2-.16-.45-.24-.76-.24s-.56.08-.76.24c-.2.16-.35.37-.44.63s-.14.54-.14.84.05.58.14.84c.1.26.24.47.44.62.2.16.45.24.76.24M40.72,50.87c-.41,0-.76-.1-1.07-.29-.3-.19-.54-.46-.71-.81-.17-.34-.26-.75-.26-1.22s.08-.87.26-1.22c.17-.35.41-.62.71-.81.31-.19.66-.29,1.07-.29s.76.1,1.06.29c.3.2.54.47.71.81.17.35.26.76.26,1.22s-.08.87-.26,1.22c-.17.35-.41.62-.71.81-.31.19-.66.29-1.06.29"/>
    <path class="cls-1" d="M44.48,48.53c0,.34.05.64.15.9.1.26.25.46.43.6.19.14.43.22.7.22s.53-.08.72-.23c.19-.15.34-.36.44-.62.1-.26.15-.55.15-.87s-.05-.6-.14-.85c-.1-.26-.24-.46-.44-.61-.19-.15-.43-.22-.73-.22s-.52.07-.71.21c-.19.14-.33.34-.43.59-.1.25-.14.55-.14.88M43.8,52.46v-6.16h.67v.71h.08c.05-.08.12-.18.21-.3.09-.12.22-.23.39-.33.17-.1.4-.14.69-.14.38,0,.71.09,1,.28.29.19.51.46.67.8.16.35.24.76.24,1.22s-.08.89-.24,1.23c-.16.35-.39.62-.67.81-.29.19-.62.28-.99.28-.29,0-.52-.05-.69-.14-.17-.1-.31-.21-.4-.33-.09-.13-.17-.23-.22-.31h-.06v2.37h-.69Z"/>
    <path class="cls-1" d="M48.81,50.78v-4.48h.67v.7h.06c.09-.24.25-.43.45-.56.21-.13.46-.2.75-.2s.54.07.74.2c.2.13.35.32.46.56h.05c.11-.23.29-.41.52-.55.23-.14.5-.21.83-.21.4,0,.73.13.98.38.25.25.38.64.38,1.17v3h-.69v-3c0-.33-.09-.57-.27-.71-.18-.14-.4-.21-.64-.21-.32,0-.56.1-.73.29-.17.19-.26.43-.26.72v2.92h-.7v-3.07c0-.26-.08-.46-.25-.62-.17-.16-.38-.24-.64-.24-.18,0-.35.05-.5.14-.15.1-.28.23-.37.4-.1.17-.14.36-.14.58v2.8h-.69Z"/>
    <path class="cls-1" d="M57.84,50.87c-.43,0-.8-.1-1.12-.29-.31-.19-.55-.46-.72-.8-.17-.34-.25-.75-.25-1.21s.08-.86.25-1.22c.17-.35.4-.63.71-.82.3-.2.66-.3,1.06-.3.23,0,.46.04.69.12.23.08.44.2.62.38.19.17.33.4.44.69.11.28.17.64.17,1.06v.29h-3.46v-.59h2.75c0-.25-.05-.48-.15-.68-.1-.2-.24-.35-.43-.47-.18-.12-.4-.17-.65-.17-.28,0-.51.07-.71.2-.2.13-.35.31-.46.53-.1.22-.16.45-.16.7v.4c0,.34.06.62.18.86.12.23.28.41.49.53.21.12.45.18.73.18.18,0,.34-.03.49-.08.15-.05.27-.13.38-.23.11-.1.19-.23.25-.39l.66.19c-.07.22-.19.42-.35.59-.17.17-.37.3-.62.4-.24.09-.52.14-.82.14"/>
    <path class="cls-1" d="M61.43,48.08v2.7h-.69v-4.49h.66v.7h.06c.11-.23.26-.41.48-.55.22-.14.49-.21.83-.21.3,0,.57.06.8.19.23.12.4.31.53.56.13.25.19.56.19.94v2.85h-.69v-2.8c0-.35-.09-.63-.27-.82-.18-.2-.43-.3-.75-.3-.22,0-.42.05-.59.14-.17.1-.31.23-.41.42-.1.18-.15.4-.15.67"/>
    <path class="cls-1" d="M65.86,45.22h.69v4.27c0,.2.03.34.09.44s.13.16.22.19c.09.03.19.05.29.05.07,0,.14,0,.19-.01.05,0,.09-.01.12-.02l.14.62s-.11.04-.2.05c-.08.02-.19.03-.32.03-.19,0-.38-.04-.57-.13-.19-.08-.34-.21-.46-.38-.12-.17-.18-.39-.18-.65v-4.46ZM67.5,46.88h-2.32v-.58h2.32v.58Z"/>
  </g>
</svg>